<?xml version="1.0" encoding="UTF-8" ?>
<svg version="1.1" width="16" height="16" xmlns="http://www.w3.org/2000/svg" shape-rendering="crispEdges">
<rect x="0" y="0" width="1" height="1" fill="#007F97" />
<rect x="1" y="0" width="1" height="1" fill="#000000" />
<rect x="2" y="0" width="1" height="1" fill="#BF7727" />
<rect x="3" y="0" width="1" height="1" fill="#DFAF67" />
<rect x="4" y="0" width="1" height="1" fill="#FFE79F" />
<rect x="5" y="0" width="1" height="1" fill="#A70017" />
<rect x="6" y="0" width="1" height="1" fill="#FF001F" />
<rect x="7" y="0" width="1" height="1" fill="#FF87AF" />
<rect x="8" y="0" width="1" height="1" fill="#0067B7" />
<rect x="9" y="0" width="1" height="1" fill="#1F9FE7" />
<rect x="10" y="0" width="1" height="1" fill="#8FDFFF" />
<rect x="11" y="0" width="1" height="1" fill="#7F8F97" />
<rect x="12" y="0" width="1" height="1" fill="#9FAFB7" />
<rect x="13" y="0" width="1" height="1" fill="#BFC7CF" />
<rect x="14" y="0" width="1" height="1" fill="#DFE7E7" />
<rect x="15" y="0" width="1" height="1" fill="#FFFFFF" />
<rect x="0" y="1" width="1" height="1" fill="#007F97" />
<rect x="1" y="1" width="1" height="1" fill="#000000" />
<rect x="2" y="1" width="1" height="1" fill="#BF7727" />
<rect x="3" y="1" width="1" height="1" fill="#DFAF67" />
<rect x="4" y="1" width="1" height="1" fill="#FFE79F" />
<rect x="5" y="1" width="1" height="1" fill="#C757C7" />
<rect x="6" y="1" width="1" height="1" fill="#FF8FFF" />
<rect x="7" y="1" width="1" height="1" fill="#FFCFFF" />
<rect x="8" y="1" width="1" height="1" fill="#773F00" />
<rect x="9" y="1" width="1" height="1" fill="#A75F1F" />
<rect x="10" y="1" width="1" height="1" fill="#DF771F" />
<rect x="11" y="1" width="1" height="1" fill="#278700" />
<rect x="12" y="1" width="1" height="1" fill="#5FB727" />
<rect x="13" y="1" width="1" height="1" fill="#7FDF57" />
<rect x="14" y="1" width="1" height="1" fill="#B7FF8F" />
<rect x="15" y="1" width="1" height="1" fill="#FFFFFF" />
<rect x="0" y="2" width="1" height="1" fill="#007F97" />
<rect x="1" y="2" width="1" height="1" fill="#000000" />
<rect x="2" y="2" width="1" height="1" fill="#572F9F" />
<rect x="3" y="2" width="1" height="1" fill="#8F67BF" />
<rect x="4" y="2" width="1" height="1" fill="#B797DF" />
<rect x="5" y="2" width="1" height="1" fill="#CF9700" />
<rect x="6" y="2" width="1" height="1" fill="#F7E700" />
<rect x="7" y="2" width="1" height="1" fill="#FFFFA7" />
<rect x="8" y="2" width="1" height="1" fill="#373F8F" />
<rect x="9" y="2" width="1" height="1" fill="#4F5F97" />
<rect x="10" y="2" width="1" height="1" fill="#6787AF" />
<rect x="11" y="2" width="1" height="1" fill="#47676F" />
<rect x="12" y="2" width="1" height="1" fill="#7F8F97" />
<rect x="13" y="2" width="1" height="1" fill="#AFB7BF" />
<rect x="14" y="2" width="1" height="1" fill="#D7DFDF" />
<rect x="15" y="2" width="1" height="1" fill="#FFFFFF" />
<rect x="0" y="3" width="1" height="1" fill="#007F97" />
<rect x="1" y="3" width="1" height="1" fill="#000000" />
<rect x="2" y="3" width="1" height="1" fill="#9F0000" />
<rect x="3" y="3" width="1" height="1" fill="#D73F00" />
<rect x="4" y="3" width="1" height="1" fill="#FF875F" />
<rect x="5" y="3" width="1" height="1" fill="#008787" />
<rect x="6" y="3" width="1" height="1" fill="#37BFF7" />
<rect x="7" y="3" width="1" height="1" fill="#77FFFF" />
<rect x="8" y="3" width="1" height="1" fill="#9F5F00" />
<rect x="9" y="3" width="1" height="1" fill="#CF9F00" />
<rect x="10" y="3" width="1" height="1" fill="#FFF700" />
<rect x="11" y="3" width="1" height="1" fill="#278700" />
<rect x="12" y="3" width="1" height="1" fill="#5FB727" />
<rect x="13" y="3" width="1" height="1" fill="#7FDF57" />
<rect x="14" y="3" width="1" height="1" fill="#D7EFA7" />
<rect x="15" y="3" width="1" height="1" fill="#FFFFFF" />
<rect x="0" y="4" width="1" height="1" fill="#007F97" />
<rect x="1" y="4" width="1" height="1" fill="#000000" />
<rect x="2" y="4" width="1" height="1" fill="#0057C7" />
<rect x="3" y="4" width="1" height="1" fill="#008FFF" />
<rect x="4" y="4" width="1" height="1" fill="#3FCFFF" />
<rect x="5" y="4" width="1" height="1" fill="#0057C7" />
<rect x="6" y="4" width="1" height="1" fill="#008FFF" />
<rect x="7" y="4" width="1" height="1" fill="#3FCFFF" />
<rect x="8" y="4" width="1" height="1" fill="#E73F67" />
<rect x="9" y="4" width="1" height="1" fill="#FF8FAF" />
<rect x="10" y="4" width="1" height="1" fill="#FFC7D7" />
<rect x="11" y="4" width="1" height="1" fill="#9F0000" />
<rect x="12" y="4" width="1" height="1" fill="#D73F00" />
<rect x="13" y="4" width="1" height="1" fill="#FF875F" />
<rect x="14" y="4" width="1" height="1" fill="#FFC7AF" />
<rect x="15" y="4" width="1" height="1" fill="#FFFFFF" />
<rect x="0" y="5" width="1" height="1" fill="#007F97" />
<rect x="1" y="5" width="1" height="1" fill="#000000" />
<rect x="2" y="5" width="1" height="1" fill="#006F07" />
<rect x="3" y="5" width="1" height="1" fill="#00A73F" />
<rect x="4" y="5" width="1" height="1" fill="#3FE77F" />
<rect x="5" y="5" width="1" height="1" fill="#17A757" />
<rect x="6" y="5" width="1" height="1" fill="#4FDF8F" />
<rect x="7" y="5" width="1" height="1" fill="#8FFFCF" />
<rect x="8" y="5" width="1" height="1" fill="#5767B7" />
<rect x="9" y="5" width="1" height="1" fill="#879FFF" />
<rect x="10" y="5" width="1" height="1" fill="#B7CFFF" />
<rect x="11" y="5" width="1" height="1" fill="#773F00" />
<rect x="12" y="5" width="1" height="1" fill="#A76F00" />
<rect x="13" y="5" width="1" height="1" fill="#DFB700" />
<rect x="14" y="5" width="1" height="1" fill="#FFF700" />
<rect x="15" y="5" width="1" height="1" fill="#FFFFFF" />
<rect x="0" y="6" width="1" height="1" fill="#007F97" />
<rect x="1" y="6" width="1" height="1" fill="#000000" />
<rect x="2" y="6" width="1" height="1" fill="#9F5F00" />
<rect x="3" y="6" width="1" height="1" fill="#CF9F00" />
<rect x="4" y="6" width="1" height="1" fill="#FFF700" />
<rect x="5" y="6" width="1" height="1" fill="#00AF00" />
<rect x="6" y="6" width="1" height="1" fill="#00FF00" />
<rect x="7" y="6" width="1" height="1" fill="#7FFF7F" />
<rect x="8" y="6" width="1" height="1" fill="#9F0000" />
<rect x="9" y="6" width="1" height="1" fill="#D73F00" />
<rect x="10" y="6" width="1" height="1" fill="#FF875F" />
<rect x="11" y="6" width="1" height="1" fill="#003FAF" />
<rect x="12" y="6" width="1" height="1" fill="#2787D7" />
<rect x="13" y="6" width="1" height="1" fill="#47C7FF" />
<rect x="14" y="6" width="1" height="1" fill="#A7EFFF" />
<rect x="15" y="6" width="1" height="1" fill="#FFFFFF" />
<rect x="0" y="7" width="1" height="1" fill="#007F97" />
<rect x="1" y="7" width="1" height="1" fill="#000000" />
<rect x="2" y="7" width="1" height="1" fill="#57009F" />
<rect x="3" y="7" width="1" height="1" fill="#8F00D7" />
<rect x="4" y="7" width="1" height="1" fill="#DF4FFF" />
<rect x="5" y="7" width="1" height="1" fill="#BF5700" />
<rect x="6" y="7" width="1" height="1" fill="#FF9700" />
<rect x="7" y="7" width="1" height="1" fill="#FFCF37" />
<rect x="8" y="7" width="1" height="1" fill="#873F87" />
<rect x="9" y="7" width="1" height="1" fill="#AF6FB7" />
<rect x="10" y="7" width="1" height="1" fill="#D797DF" />
<rect x="11" y="7" width="1" height="1" fill="#275FC7" />
<rect x="12" y="7" width="1" height="1" fill="#57A7E7" />
<rect x="13" y="7" width="1" height="1" fill="#7FE7FF" />
<rect x="14" y="7" width="1" height="1" fill="#B7FFFF" />
<rect x="15" y="7" width="1" height="1" fill="#FFFFFF" />
<rect x="0" y="8" width="1" height="1" fill="#007F97" />
<rect x="1" y="8" width="1" height="1" fill="#000000" />
<rect x="2" y="8" width="1" height="1" fill="#0057C7" />
<rect x="3" y="8" width="1" height="1" fill="#008FFF" />
<rect x="4" y="8" width="1" height="1" fill="#3FCFFF" />
<rect x="5" y="8" width="1" height="1" fill="#67B700" />
<rect x="6" y="8" width="1" height="1" fill="#AFFF00" />
<rect x="7" y="8" width="1" height="1" fill="#F7FF77" />
<rect x="8" y="8" width="1" height="1" fill="#BF7727" />
<rect x="9" y="8" width="1" height="1" fill="#DFAF67" />
<rect x="10" y="8" width="1" height="1" fill="#FFE79F" />
<rect x="11" y="8" width="1" height="1" fill="#57009F" />
<rect x="12" y="8" width="1" height="1" fill="#8F00D7" />
<rect x="13" y="8" width="1" height="1" fill="#B74FFF" />
<rect x="14" y="8" width="1" height="1" fill="#CFA7FF" />
<rect x="15" y="8" width="1" height="1" fill="#FFFFFF" />
<rect x="0" y="9" width="1" height="1" fill="#007F97" />
<rect x="1" y="9" width="1" height="1" fill="#000000" />
<rect x="2" y="9" width="1" height="1" fill="#008787" />
<rect x="3" y="9" width="1" height="1" fill="#37BFF7" />
<rect x="4" y="9" width="1" height="1" fill="#77FFFF" />
<rect x="5" y="9" width="1" height="1" fill="#006F07" />
<rect x="6" y="9" width="1" height="1" fill="#00A73F" />
<rect x="7" y="9" width="1" height="1" fill="#3FE77F" />
<rect x="8" y="9" width="1" height="1" fill="#773F00" />
<rect x="9" y="9" width="1" height="1" fill="#DF771F" />
<rect x="10" y="9" width="1" height="1" fill="#FF9747" />
<rect x="11" y="9" width="1" height="1" fill="#BF8F00" />
<rect x="12" y="9" width="1" height="1" fill="#DFC700" />
<rect x="13" y="9" width="1" height="1" fill="#FFF700" />
<rect x="14" y="9" width="1" height="1" fill="#FFFF7F" />
<rect x="15" y="9" width="1" height="1" fill="#FFFFFF" />
<rect x="0" y="10" width="1" height="1" fill="#007F97" />
<rect x="1" y="10" width="1" height="1" fill="#000000" />
<rect x="2" y="10" width="1" height="1" fill="#9F0000" />
<rect x="3" y="10" width="1" height="1" fill="#D73F00" />
<rect x="4" y="10" width="1" height="1" fill="#FF875F" />
<rect x="5" y="10" width="1" height="1" fill="#4F5F6F" />
<rect x="6" y="10" width="1" height="1" fill="#67879F" />
<rect x="7" y="10" width="1" height="1" fill="#B7C7CF" />
<rect x="8" y="10" width="1" height="1" fill="#278700" />
<rect x="9" y="10" width="1" height="1" fill="#5FC737" />
<rect x="10" y="10" width="1" height="1" fill="#8FFF67" />
<rect x="11" y="10" width="1" height="1" fill="#072F47" />
<rect x="12" y="10" width="1" height="1" fill="#4F6F7F" />
<rect x="13" y="10" width="1" height="1" fill="#97AFB7" />
<rect x="14" y="10" width="1" height="1" fill="#DFEFEF" />
<rect x="15" y="10" width="1" height="1" fill="#FFFFFF" />
<rect x="0" y="11" width="1" height="1" fill="#007F97" />
<rect x="1" y="11" width="1" height="1" fill="#000000" />
<rect x="2" y="11" width="1" height="1" fill="#9F5F00" />
<rect x="3" y="11" width="1" height="1" fill="#CF9F00" />
<rect x="4" y="11" width="1" height="1" fill="#FFF700" />
<rect x="5" y="11" width="1" height="1" fill="#871700" />
<rect x="6" y="11" width="1" height="1" fill="#BF4F00" />
<rect x="7" y="11" width="1" height="1" fill="#FF8F3F" />
<rect x="8" y="11" width="1" height="1" fill="#7F8F97" />
<rect x="9" y="11" width="1" height="1" fill="#AFB7BF" />
<rect x="10" y="11" width="1" height="1" fill="#D7DFDF" />
<rect x="11" y="11" width="1" height="1" fill="#000000" />
<rect x="12" y="11" width="1" height="1" fill="#272F2F" />
<rect x="13" y="11" width="1" height="1" fill="#4F5757" />
<rect x="14" y="11" width="1" height="1" fill="#8F978F" />
<rect x="15" y="11" width="1" height="1" fill="#FFFFFF" />
<rect x="0" y="12" width="1" height="1" fill="#007F97" />
<rect x="1" y="12" width="1" height="1" fill="#000000" />
<rect x="2" y="12" width="1" height="1" fill="#0057C7" />
<rect x="3" y="12" width="1" height="1" fill="#008FFF" />
<rect x="4" y="12" width="1" height="1" fill="#3FCFFF" />
<rect x="5" y="12" width="1" height="1" fill="#00008F" />
<rect x="6" y="12" width="1" height="1" fill="#0000C7" />
<rect x="7" y="12" width="1" height="1" fill="#7777FF" />
<rect x="8" y="12" width="1" height="1" fill="#5FA7E7" />
<rect x="9" y="12" width="1" height="1" fill="#8FDFFF" />
<rect x="10" y="12" width="1" height="1" fill="#C7EFFF" />
<rect x="11" y="12" width="1" height="1" fill="#5F2F00" />
<rect x="12" y="12" width="1" height="1" fill="#97570F" />
<rect x="13" y="12" width="1" height="1" fill="#C7771F" />
<rect x="14" y="12" width="1" height="1" fill="#E7BF8F" />
<rect x="15" y="12" width="1" height="1" fill="#FFFFFF" />
<rect x="0" y="13" width="1" height="1" fill="#007F97" />
<rect x="1" y="13" width="1" height="1" fill="#000000" />
<rect x="2" y="13" width="1" height="1" fill="#E73F67" />
<rect x="3" y="13" width="1" height="1" fill="#FF8FAF" />
<rect x="4" y="13" width="1" height="1" fill="#FFC7D7" />
<rect x="5" y="13" width="1" height="1" fill="#57009F" />
<rect x="6" y="13" width="1" height="1" fill="#8F00D7" />
<rect x="7" y="13" width="1" height="1" fill="#DF4FFF" />
<rect x="8" y="13" width="1" height="1" fill="#D7A700" />
<rect x="9" y="13" width="1" height="1" fill="#E7C700" />
<rect x="10" y="13" width="1" height="1" fill="#FFF700" />
<rect x="11" y="13" width="1" height="1" fill="#8F00D7" />
<rect x="12" y="13" width="1" height="1" fill="#B74FFF" />
<rect x="13" y="13" width="1" height="1" fill="#CFA7FF" />
<rect x="14" y="13" width="1" height="1" fill="#E7D7FF" />
<rect x="15" y="13" width="1" height="1" fill="#FFFFFF" />
<rect x="0" y="14" width="1" height="1" fill="#007F97" />
<rect x="1" y="14" width="1" height="1" fill="#000000" />
<rect x="2" y="14" width="1" height="1" fill="#57009F" />
<rect x="3" y="14" width="1" height="1" fill="#8F00D7" />
<rect x="4" y="14" width="1" height="1" fill="#DF4FFF" />
<rect x="5" y="14" width="1" height="1" fill="#9F00B7" />
<rect x="6" y="14" width="1" height="1" fill="#D700EF" />
<rect x="7" y="14" width="1" height="1" fill="#FF7FFF" />
<rect x="8" y="14" width="1" height="1" fill="#BF5700" />
<rect x="9" y="14" width="1" height="1" fill="#FF9700" />
<rect x="10" y="14" width="1" height="1" fill="#FFCF37" />
<rect x="11" y="14" width="1" height="1" fill="#278FDF" />
<rect x="12" y="14" width="1" height="1" fill="#47C7FF" />
<rect x="13" y="14" width="1" height="1" fill="#7FE7FF" />
<rect x="14" y="14" width="1" height="1" fill="#B7FFFF" />
<rect x="15" y="14" width="1" height="1" fill="#FFFFFF" />
<rect x="0" y="15" width="1" height="1" fill="#007F97" />
<rect x="1" y="15" width="1" height="1" fill="#000000" />
<rect x="2" y="15" width="1" height="1" fill="#278700" />
<rect x="3" y="15" width="1" height="1" fill="#5FC737" />
<rect x="4" y="15" width="1" height="1" fill="#8FFF67" />
<rect x="5" y="15" width="1" height="1" fill="#A7003F" />
<rect x="6" y="15" width="1" height="1" fill="#FF0097" />
<rect x="7" y="15" width="1" height="1" fill="#FF7FFF" />
<rect x="8" y="15" width="1" height="1" fill="#AFB7BF" />
<rect x="9" y="15" width="1" height="1" fill="#D7DFDF" />
<rect x="10" y="15" width="1" height="1" fill="#FFFFFF" />
<rect x="11" y="15" width="1" height="1" fill="#AF3F00" />
<rect x="12" y="15" width="1" height="1" fill="#D77F00" />
<rect x="13" y="15" width="1" height="1" fill="#FFB700" />
<rect x="14" y="15" width="1" height="1" fill="#FFDF7F" />
<rect x="15" y="15" width="1" height="1" fill="#FFFFFF" />
</svg>