<?xml version="1.0" encoding="UTF-8" ?>
<svg version="1.1" width="16" height="16" xmlns="http://www.w3.org/2000/svg" shape-rendering="crispEdges">
<rect x="0" y="0" width="1" height="1" fill="#930001" />
<rect x="1" y="0" width="1" height="1" fill="#FE9697" />
<rect x="2" y="0" width="1" height="1" fill="#D1A6A9" />
<rect x="3" y="0" width="1" height="1" fill="#FC0015" />
<rect x="4" y="0" width="1" height="1" fill="#A20010" />
<rect x="5" y="0" width="1" height="1" fill="#F75566" />
<rect x="6" y="0" width="1" height="1" fill="#F9C6CE" />
<rect x="7" y="0" width="1" height="1" fill="#FF0033" />
<rect x="8" y="0" width="1" height="1" fill="#E1254C" />
<rect x="9" y="0" width="1" height="1" fill="#E21C4B" />
<rect x="10" y="0" width="1" height="1" fill="#DA2F58" />
<rect x="11" y="0" width="1" height="1" fill="#E73963" />
<rect x="12" y="0" width="1" height="1" fill="#A5002B" />
<rect x="13" y="0" width="1" height="1" fill="#97022E" />
<rect x="14" y="0" width="1" height="1" fill="#FF759C" />
<rect x="15" y="0" width="1" height="1" fill="#FFB8CD" />
<rect x="0" y="1" width="1" height="1" fill="#CE3465" />
<rect x="1" y="1" width="1" height="1" fill="#F683A8" />
<rect x="2" y="1" width="1" height="1" fill="#A23A74" />
<rect x="3" y="1" width="1" height="1" fill="#FF0091" />
<rect x="4" y="1" width="1" height="1" fill="#481030" />
<rect x="5" y="1" width="1" height="1" fill="#C252BC" />
<rect x="6" y="1" width="1" height="1" fill="#FF69FF" />
<rect x="7" y="1" width="1" height="1" fill="#7B337B" />
<rect x="8" y="1" width="1" height="1" fill="#CC66CC" />
<rect x="9" y="1" width="1" height="1" fill="#FD93FD" />
<rect x="10" y="1" width="1" height="1" fill="#FECBFE" />
<rect x="11" y="1" width="1" height="1" fill="#EAB1EE" />
<rect x="12" y="1" width="1" height="1" fill="#9C54A5" />
<rect x="13" y="1" width="1" height="1" fill="#D434EF" />
<rect x="14" y="1" width="1" height="1" fill="#D000F5" />
<rect x="15" y="1" width="1" height="1" fill="#A30CC0" />
<rect x="0" y="2" width="1" height="1" fill="#C88ED8" />
<rect x="1" y="2" width="1" height="1" fill="#A066B2" />
<rect x="2" y="2" width="1" height="1" fill="#C263EC" />
<rect x="3" y="2" width="1" height="1" fill="#7F01CF" />
<rect x="4" y="2" width="1" height="1" fill="#A443EC" />
<rect x="5" y="2" width="1" height="1" fill="#56009A" />
<rect x="6" y="2" width="1" height="1" fill="#CDA1F4" />
<rect x="7" y="2" width="1" height="1" fill="#3C0089" />
<rect x="8" y="2" width="1" height="1" fill="#BF94FD" />
<rect x="9" y="2" width="1" height="1" fill="#E0CFFF" />
<rect x="10" y="2" width="1" height="1" fill="#0000C6" />
<rect x="11" y="2" width="1" height="1" fill="#0000B9" />
<rect x="12" y="2" width="1" height="1" fill="#000086" />
<rect x="13" y="2" width="1" height="1" fill="#000078" />
<rect x="14" y="2" width="1" height="1" fill="#333389" />
<rect x="15" y="2" width="1" height="1" fill="#6464FE" />
<rect x="0" y="3" width="1" height="1" fill="#A0A0A4" />
<rect x="1" y="3" width="1" height="1" fill="#707073" />
<rect x="2" y="3" width="1" height="1" fill="#4758AD" />
<rect x="3" y="3" width="1" height="1" fill="#5162B3" />
<rect x="4" y="3" width="1" height="1" fill="#8198F4" />
<rect x="5" y="3" width="1" height="1" fill="#3F4F8A" />
<rect x="6" y="3" width="1" height="1" fill="#485890" />
<rect x="7" y="3" width="1" height="1" fill="#00259C" />
<rect x="8" y="3" width="1" height="1" fill="#013AAF" />
<rect x="9" y="3" width="1" height="1" fill="#3366CC" />
<rect x="10" y="3" width="1" height="1" fill="#B1C9F2" />
<rect x="11" y="3" width="1" height="1" fill="#0053B8" />
<rect x="12" y="3" width="1" height="1" fill="#5F7FA8" />
<rect x="13" y="3" width="1" height="1" fill="#086ACC" />
<rect x="14" y="3" width="1" height="1" fill="#99CCFF" />
<rect x="15" y="3" width="1" height="1" fill="#485868" />
<rect x="0" y="4" width="1" height="1" fill="#A4ADB6" />
<rect x="1" y="4" width="1" height="1" fill="#A8B1BA" />
<rect x="2" y="4" width="1" height="1" fill="#0083FA" />
<rect x="3" y="4" width="1" height="1" fill="#4293E1" />
<rect x="4" y="4" width="1" height="1" fill="#5EA0DE" />
<rect x="5" y="4" width="1" height="1" fill="#0061B1" />
<rect x="6" y="4" width="1" height="1" fill="#1E82D6" />
<rect x="7" y="4" width="1" height="1" fill="#00192D" />
<rect x="8" y="4" width="1" height="1" fill="#608098" />
<rect x="9" y="4" width="1" height="1" fill="#99A6B0" />
<rect x="10" y="4" width="1" height="1" fill="#0099FF" />
<rect x="11" y="4" width="1" height="1" fill="#B3BFC7" />
<rect x="12" y="4" width="1" height="1" fill="#C3CBD0" />
<rect x="13" y="4" width="1" height="1" fill="#1899E1" />
<rect x="14" y="4" width="1" height="1" fill="#1495D9" />
<rect x="15" y="4" width="1" height="1" fill="#1FAEF5" />
<rect x="0" y="5" width="1" height="1" fill="#84D6FF" />
<rect x="1" y="5" width="1" height="1" fill="#345464" />
<rect x="2" y="5" width="1" height="1" fill="#477085" />
<rect x="3" y="5" width="1" height="1" fill="#788890" />
<rect x="4" y="5" width="1" height="1" fill="#2DB8FA" />
<rect x="5" y="5" width="1" height="1" fill="#76D4FE" />
<rect x="6" y="5" width="1" height="1" fill="#C4E9FA" />
<rect x="7" y="5" width="1" height="1" fill="#70828A" />
<rect x="8" y="5" width="1" height="1" fill="#7B8C94" />
<rect x="9" y="5" width="1" height="1" fill="#42C5FE" />
<rect x="10" y="5" width="1" height="1" fill="#88D8F8" />
<rect x="11" y="5" width="1" height="1" fill="#B9EBFF" />
<rect x="12" y="5" width="1" height="1" fill="#657880" />
<rect x="13" y="5" width="1" height="1" fill="#2FC7FD" />
<rect x="14" y="5" width="1" height="1" fill="#829CA5" />
<rect x="15" y="5" width="1" height="1" fill="#80DBF6" />
<rect x="0" y="6" width="1" height="1" fill="#88D8F0" />
<rect x="1" y="6" width="1" height="1" fill="#65E1FF" />
<rect x="2" y="6" width="1" height="1" fill="#62A9BB" />
<rect x="3" y="6" width="1" height="1" fill="#007890" />
<rect x="4" y="6" width="1" height="1" fill="#93EBFF" />
<rect x="5" y="6" width="1" height="1" fill="#A3ECFC" />
<rect x="6" y="6" width="1" height="1" fill="#365052" />
<rect x="7" y="6" width="1" height="1" fill="#008484" />
<rect x="8" y="6" width="1" height="1" fill="#007271" />
<rect x="9" y="6" width="1" height="1" fill="#61FEFE" />
<rect x="10" y="6" width="1" height="1" fill="#A5FFFF" />
<rect x="11" y="6" width="1" height="1" fill="#588888" />
<rect x="12" y="6" width="1" height="1" fill="#669999" />
<rect x="13" y="6" width="1" height="1" fill="#B3FAFA" />
<rect x="14" y="6" width="1" height="1" fill="#B2E2E2" />
<rect x="15" y="6" width="1" height="1" fill="#010101" />
<rect x="0" y="7" width="1" height="1" fill="#CCFFFF" />
<rect x="1" y="7" width="1" height="1" fill="#D6EBEB" />
<rect x="2" y="7" width="1" height="1" fill="#D9E8E8" />
<rect x="3" y="7" width="1" height="1" fill="#353838" />
<rect x="4" y="7" width="1" height="1" fill="#D6E1E1" />
<rect x="5" y="7" width="1" height="1" fill="#CCD6D6" />
<rect x="6" y="7" width="1" height="1" fill="#ECF6F6" />
<rect x="7" y="7" width="1" height="1" fill="#D8E0E0" />
<rect x="8" y="7" width="1" height="1" fill="#D0D8D8" />
<rect x="9" y="7" width="1" height="1" fill="#949999" />
<rect x="10" y="7" width="1" height="1" fill="#535555" />
<rect x="11" y="7" width="1" height="1" fill="#4C746C" />
<rect x="12" y="7" width="1" height="1" fill="#58B8A0" />
<rect x="13" y="7" width="1" height="1" fill="#B8F0E0" />
<rect x="14" y="7" width="1" height="1" fill="#009966" />
<rect x="15" y="7" width="1" height="1" fill="#33CC99" />
<rect x="0" y="8" width="1" height="1" fill="#99FFCC" />
<rect x="1" y="8" width="1" height="1" fill="#00A439" />
<rect x="2" y="8" width="1" height="1" fill="#37DD73" />
<rect x="3" y="8" width="1" height="1" fill="#009933" />
<rect x="4" y="8" width="1" height="1" fill="#00FF00" />
<rect x="5" y="8" width="1" height="1" fill="#00AD00" />
<rect x="6" y="8" width="1" height="1" fill="#009A00" />
<rect x="7" y="8" width="1" height="1" fill="#006900" />
<rect x="8" y="8" width="1" height="1" fill="#68FF67" />
<rect x="9" y="8" width="1" height="1" fill="#788078" />
<rect x="10" y="8" width="1" height="1" fill="#868786" />
<rect x="11" y="8" width="1" height="1" fill="#136F00" />
<rect x="12" y="8" width="1" height="1" fill="#449933" />
<rect x="13" y="8" width="1" height="1" fill="#1A7A00" />
<rect x="14" y="8" width="1" height="1" fill="#218400" />
<rect x="15" y="8" width="1" height="1" fill="#208000" />
<rect x="0" y="9" width="1" height="1" fill="#78FD4D" />
<rect x="1" y="9" width="1" height="1" fill="#53C02B" />
<rect x="2" y="9" width="1" height="1" fill="#7ADB51" />
<rect x="3" y="9" width="1" height="1" fill="#8BF75F" />
<rect x="4" y="9" width="1" height="1" fill="#339900" />
<rect x="5" y="9" width="1" height="1" fill="#46AE14" />
<rect x="6" y="9" width="1" height="1" fill="#66CE35" />
<rect x="7" y="9" width="1" height="1" fill="#B2FA89" />
<rect x="8" y="9" width="1" height="1" fill="#59B321" />
<rect x="9" y="9" width="1" height="1" fill="#66CC00" />
<rect x="10" y="9" width="1" height="1" fill="#9AFF00" />
<rect x="11" y="9" width="1" height="1" fill="#CEEC97" />
<rect x="12" y="9" width="1" height="1" fill="#D4ECA3" />
<rect x="13" y="9" width="1" height="1" fill="#7A8700" />
<rect x="14" y="9" width="1" height="1" fill="#D2DF57" />
<rect x="15" y="9" width="1" height="1" fill="#F5FF5C" />
<rect x="0" y="10" width="1" height="1" fill="#FFFF00" />
<rect x="1" y="10" width="1" height="1" fill="#FDFD73" />
<rect x="2" y="10" width="1" height="1" fill="#FFFF96" />
<rect x="3" y="10" width="1" height="1" fill="#F8F8F0" />
<rect x="4" y="10" width="1" height="1" fill="#FFF600" />
<rect x="5" y="10" width="1" height="1" fill="#F8F000" />
<rect x="6" y="10" width="1" height="1" fill="#F6ED00" />
<rect x="7" y="10" width="1" height="1" fill="#F0E800" />
<rect x="8" y="10" width="1" height="1" fill="#F8F008" />
<rect x="9" y="10" width="1" height="1" fill="#F3E100" />
<rect x="10" y="10" width="1" height="1" fill="#FBF4A7" />
<rect x="11" y="10" width="1" height="1" fill="#DAC700" />
<rect x="12" y="10" width="1" height="1" fill="#DEB500" />
<rect x="13" y="10" width="1" height="1" fill="#D7B001" />
<rect x="14" y="10" width="1" height="1" fill="#D0B860" />
<rect x="15" y="10" width="1" height="1" fill="#FAE59A" />
<rect x="0" y="11" width="1" height="1" fill="#CE9C00" />
<rect x="1" y="11" width="1" height="1" fill="#C89800" />
<rect x="2" y="11" width="1" height="1" fill="#D8A502" />
<rect x="3" y="11" width="1" height="1" fill="#FFC613" />
<rect x="4" y="11" width="1" height="1" fill="#FDCB32" />
<rect x="5" y="11" width="1" height="1" fill="#CC9900" />
<rect x="6" y="11" width="1" height="1" fill="#BC8C00" />
<rect x="7" y="11" width="1" height="1" fill="#F8B000" />
<rect x="8" y="11" width="1" height="1" fill="#CB9200" />
<rect x="9" y="11" width="1" height="1" fill="#C38500" />
<rect x="10" y="11" width="1" height="1" fill="#A88840" />
<rect x="11" y="11" width="1" height="1" fill="#FBCF6D" />
<rect x="12" y="11" width="1" height="1" fill="#F3D797" />
<rect x="13" y="11" width="1" height="1" fill="#875A00" />
<rect x="14" y="11" width="1" height="1" fill="#F6B93F" />
<rect x="15" y="11" width="1" height="1" fill="#907030" />
<rect x="0" y="12" width="1" height="1" fill="#786030" />
<rect x="1" y="12" width="1" height="1" fill="#A56B00" />
<rect x="2" y="12" width="1" height="1" fill="#A06800" />
<rect x="3" y="12" width="1" height="1" fill="#9A6500" />
<rect x="4" y="12" width="1" height="1" fill="#553300" />
<rect x="5" y="12" width="1" height="1" fill="#DAA558" />
<rect x="6" y="12" width="1" height="1" fill="#D8A860" />
<rect x="7" y="12" width="1" height="1" fill="#DEAD63" />
<rect x="8" y="12" width="1" height="1" fill="#965601" />
<rect x="9" y="12" width="1" height="1" fill="#FE8B00" />
<rect x="10" y="12" width="1" height="1" fill="#D57903" />
<rect x="11" y="12" width="1" height="1" fill="#E3BA8A" />
<rect x="12" y="12" width="1" height="1" fill="#C17118" />
<rect x="13" y="12" width="1" height="1" fill="#BC7421" />
<rect x="14" y="12" width="1" height="1" fill="#B87020" />
<rect x="15" y="12" width="1" height="1" fill="#CC6600" />
<rect x="0" y="13" width="1" height="1" fill="#884400" />
<rect x="1" y="13" width="1" height="1" fill="#733900" />
<rect x="2" y="13" width="1" height="1" fill="#703800" />
<rect x="3" y="13" width="1" height="1" fill="#663300" />
<rect x="4" y="13" width="1" height="1" fill="#B6681A" />
<rect x="5" y="13" width="1" height="1" fill="#FF9933" />
<rect x="6" y="13" width="1" height="1" fill="#E1AE78" />
<rect x="7" y="13" width="1" height="1" fill="#BFBEBD" />
<rect x="8" y="13" width="1" height="1" fill="#A05818" />
<rect x="9" y="13" width="1" height="1" fill="#682F00" />
<rect x="10" y="13" width="1" height="1" fill="#BA5502" />
<rect x="11" y="13" width="1" height="1" fill="#803C02" />
<rect x="12" y="13" width="1" height="1" fill="#DE7318" />
<rect x="13" y="13" width="1" height="1" fill="#D87018" />
<rect x="14" y="13" width="1" height="1" fill="#A55A18" />
<rect x="15" y="13" width="1" height="1" fill="#F28E3D" />
<rect x="0" y="14" width="1" height="1" fill="#DA6812" />
<rect x="1" y="14" width="1" height="1" fill="#9C4F12" />
<rect x="2" y="14" width="1" height="1" fill="#5C2500" />
<rect x="3" y="14" width="1" height="1" fill="#93430C" />
<rect x="4" y="14" width="1" height="1" fill="#D65C0C" />
<rect x="5" y="14" width="1" height="1" fill="#431900" />
<rect x="6" y="14" width="1" height="1" fill="#A93900" />
<rect x="7" y="14" width="1" height="1" fill="#FA8D62" />
<rect x="8" y="14" width="1" height="1" fill="#FABDA4" />
<rect x="9" y="14" width="1" height="1" fill="#D63900" />
<rect x="10" y="14" width="1" height="1" fill="#D03800" />
<rect x="11" y="14" width="1" height="1" fill="#CC3300" />
<rect x="12" y="14" width="1" height="1" fill="#F8784D" />
<rect x="13" y="14" width="1" height="1" fill="#F68159" />
<rect x="14" y="14" width="1" height="1" fill="#D12F00" />
<rect x="15" y="14" width="1" height="1" fill="#CC2500" />
<rect x="0" y="15" width="1" height="1" fill="#990000" />
<rect x="1" y="15" width="1" height="1" fill="#850000" />
<rect x="2" y="15" width="1" height="1" fill="#F83838" />
<rect x="3" y="15" width="1" height="1" fill="#E4E3E3" />
<rect x="4" y="15" width="1" height="1" fill="#FEFEFE" />
<rect x="5" y="15" width="1" height="1" fill="#F8F8F8" />
<rect x="6" y="15" width="1" height="1" fill="#F6F6F6" />
<rect x="7" y="15" width="1" height="1" fill="#F0F0F0" />
<rect x="8" y="15" width="1" height="1" fill="#D8D8D8" />
<rect x="9" y="15" width="1" height="1" fill="#D7D7D7" />
<rect x="10" y="15" width="1" height="1" fill="#B2B2B2" />
<rect x="11" y="15" width="1" height="1" fill="#080808" />
<rect x="12" y="15" width="1" height="1" fill="#060606" />
<rect x="13" y="15" width="1" height="1" fill="#040404" />
<rect x="14" y="15" width="1" height="1" fill="#020202" />
<rect x="15" y="15" width="1" height="1" fill="#FFFFFF" opacity="0.000000" />
</svg>