<?xml version="1.0" encoding="UTF-8" ?>
<svg version="1.1" width="16" height="16" xmlns="http://www.w3.org/2000/svg" shape-rendering="crispEdges">
<rect x="0" y="0" width="1" height="1" fill="#F27176" />
<rect x="1" y="0" width="1" height="1" fill="#D46F74" />
<rect x="2" y="0" width="1" height="1" fill="#510F14" />
<rect x="3" y="0" width="1" height="1" fill="#D68E98" />
<rect x="4" y="0" width="1" height="1" fill="#9B1126" />
<rect x="5" y="0" width="1" height="1" fill="#AE717C" />
<rect x="6" y="0" width="1" height="1" fill="#D13452" />
<rect x="7" y="0" width="1" height="1" fill="#B53759" />
<rect x="8" y="0" width="1" height="1" fill="#E95580" />
<rect x="9" y="0" width="1" height="1" fill="#B64D6F" />
<rect x="10" y="0" width="1" height="1" fill="#F191B2" />
<rect x="11" y="0" width="1" height="1" fill="#F573A9" />
<rect x="12" y="0" width="1" height="1" fill="#D04F8D" />
<rect x="13" y="0" width="1" height="1" fill="#F2B0D1" />
<rect x="14" y="0" width="1" height="1" fill="#F793D5" />
<rect x="15" y="0" width="1" height="1" fill="#382833" />
<rect x="0" y="1" width="1" height="1" fill="#894375" />
<rect x="1" y="1" width="1" height="1" fill="#C375AC" />
<rect x="2" y="1" width="1" height="1" fill="#CD1AA3" />
<rect x="3" y="1" width="1" height="1" fill="#B63FA0" />
<rect x="4" y="1" width="1" height="1" fill="#D2B7CD" />
<rect x="5" y="1" width="1" height="1" fill="#D193C7" />
<rect x="6" y="1" width="1" height="1" fill="#F694EA" />
<rect x="7" y="1" width="1" height="1" fill="#E941D8" />
<rect x="8" y="1" width="1" height="1" fill="#EE69E2" />
<rect x="9" y="1" width="1" height="1" fill="#886386" />
<rect x="10" y="1" width="1" height="1" fill="#F4B3F0" />
<rect x="11" y="1" width="1" height="1" fill="#F4CDF2" />
<rect x="12" y="1" width="1" height="1" fill="#A361A2" />
<rect x="13" y="1" width="1" height="1" fill="#6F576F" />
<rect x="14" y="1" width="1" height="1" fill="#F8E8F8" />
<rect x="15" y="1" width="1" height="1" fill="#595859" />
<rect x="0" y="2" width="1" height="1" fill="#6C366D" />
<rect x="1" y="2" width="1" height="1" fill="#5C485D" />
<rect x="2" y="2" width="1" height="1" fill="#BEA8C0" />
<rect x="3" y="2" width="1" height="1" fill="#9E83A2" />
<rect x="4" y="2" width="1" height="1" fill="#BD44DC" />
<rect x="5" y="2" width="1" height="1" fill="#845098" />
<rect x="6" y="2" width="1" height="1" fill="#AC95B6" />
<rect x="7" y="2" width="1" height="1" fill="#B27DCD" />
<rect x="8" y="2" width="1" height="1" fill="#CC8CF3" />
<rect x="9" y="2" width="1" height="1" fill="#D0AFF5" />
<rect x="10" y="2" width="1" height="1" fill="#9C6EDE" />
<rect x="11" y="2" width="1" height="1" fill="#280858" />
<rect x="12" y="2" width="1" height="1" fill="#5D3898" />
<rect x="13" y="2" width="1" height="1" fill="#DAD8DD" />
<rect x="14" y="2" width="1" height="1" fill="#7655BD" />
<rect x="15" y="2" width="1" height="1" fill="#B295F2" />
<rect x="0" y="3" width="1" height="1" fill="#5D3BDF" />
<rect x="1" y="3" width="1" height="1" fill="#362C6F" />
<rect x="2" y="3" width="1" height="1" fill="#8D87BD" />
<rect x="3" y="3" width="1" height="1" fill="#5A558E" />
<rect x="4" y="3" width="1" height="1" fill="#B6B3D9" />
<rect x="5" y="3" width="1" height="1" fill="#958FF5" />
<rect x="6" y="3" width="1" height="1" fill="#D1CEF8" />
<rect x="7" y="3" width="1" height="1" fill="#6E6BAD" />
<rect x="8" y="3" width="1" height="1" fill="#44445F" />
<rect x="9" y="3" width="1" height="1" fill="#787893" />
<rect x="10" y="3" width="1" height="1" fill="#68687B" />
<rect x="11" y="3" width="1" height="1" fill="#A8A8C2" />
<rect x="12" y="3" width="1" height="1" fill="#C8C8DE" />
<rect x="13" y="3" width="1" height="1" fill="#E8E8F8" />
<rect x="14" y="3" width="1" height="1" fill="#B8B8BB" />
<rect x="15" y="3" width="1" height="1" fill="#98989A" />
<rect x="0" y="4" width="1" height="1" fill="#494DB7" />
<rect x="1" y="4" width="1" height="1" fill="#9798C5" />
<rect x="2" y="4" width="1" height="1" fill="#616CDF" />
<rect x="3" y="4" width="1" height="1" fill="#AAB5F2" />
<rect x="4" y="4" width="1" height="1" fill="#243993" />
<rect x="5" y="4" width="1" height="1" fill="#3C4C7D" />
<rect x="6" y="4" width="1" height="1" fill="#81889E" />
<rect x="7" y="4" width="1" height="1" fill="#6C95EE" />
<rect x="8" y="4" width="1" height="1" fill="#182030" />
<rect x="9" y="4" width="1" height="1" fill="#6886C3" />
<rect x="10" y="4" width="1" height="1" fill="#0E51D0" />
<rect x="11" y="4" width="1" height="1" fill="#8EB2F4" />
<rect x="12" y="4" width="1" height="1" fill="#4790F3" />
<rect x="13" y="4" width="1" height="1" fill="#2576DC" />
<rect x="14" y="4" width="1" height="1" fill="#90ABCC" />
<rect x="15" y="4" width="1" height="1" fill="#4074B0" />
<rect x="0" y="5" width="1" height="1" fill="#7F98B3" />
<rect x="1" y="5" width="1" height="1" fill="#B0CFF2" />
<rect x="2" y="5" width="1" height="1" fill="#71B1F0" />
<rect x="3" y="5" width="1" height="1" fill="#2A3E53" />
<rect x="4" y="5" width="1" height="1" fill="#496B8C" />
<rect x="5" y="5" width="1" height="1" fill="#D8E8F8" />
<rect x="6" y="5" width="1" height="1" fill="#236298" />
<rect x="7" y="5" width="1" height="1" fill="#4391CB" />
<rect x="8" y="5" width="1" height="1" fill="#52ABF2" />
<rect x="9" y="5" width="1" height="1" fill="#93CFF0" />
<rect x="10" y="5" width="1" height="1" fill="#C8E8F8" />
<rect x="11" y="5" width="1" height="1" fill="#B4C8D1" />
<rect x="12" y="5" width="1" height="1" fill="#22A8D9" />
<rect x="13" y="5" width="1" height="1" fill="#71B5C9" />
<rect x="14" y="5" width="1" height="1" fill="#91A9B0" />
<rect x="15" y="5" width="1" height="1" fill="#4EB4CD" />
<rect x="0" y="6" width="1" height="1" fill="#61D4F2" />
<rect x="1" y="6" width="1" height="1" fill="#5D787F" />
<rect x="2" y="6" width="1" height="1" fill="#C0D8DD" />
<rect x="3" y="6" width="1" height="1" fill="#5D9CA7" />
<rect x="4" y="6" width="1" height="1" fill="#65898E" />
<rect x="5" y="6" width="1" height="1" fill="#47585A" />
<rect x="6" y="6" width="1" height="1" fill="#B0ECF2" />
<rect x="7" y="6" width="1" height="1" fill="#53686A" />
<rect x="8" y="6" width="1" height="1" fill="#23D3E0" />
<rect x="9" y="6" width="1" height="1" fill="#179396" />
<rect x="10" y="6" width="1" height="1" fill="#82D6DA" />
<rect x="11" y="6" width="1" height="1" fill="#95F3F6" />
<rect x="12" y="6" width="1" height="1" fill="#A0BDBE" />
<rect x="13" y="6" width="1" height="1" fill="#C3F8F8" />
<rect x="14" y="6" width="1" height="1" fill="#D8F8F8" />
<rect x="15" y="6" width="1" height="1" fill="#D8E8E8" />
<rect x="0" y="7" width="1" height="1" fill="#E8F8F8" />
<rect x="1" y="7" width="1" height="1" fill="#474848" />
<rect x="2" y="7" width="1" height="1" fill="#2D6E67" />
<rect x="3" y="7" width="1" height="1" fill="#C8E8E4" />
<rect x="4" y="7" width="1" height="1" fill="#28BA98" />
<rect x="5" y="7" width="1" height="1" fill="#3C8C79" />
<rect x="6" y="7" width="1" height="1" fill="#858887" />
<rect x="7" y="7" width="1" height="1" fill="#839890" />
<rect x="8" y="7" width="1" height="1" fill="#7DA994" />
<rect x="9" y="7" width="1" height="1" fill="#C6F8E0" />
<rect x="10" y="7" width="1" height="1" fill="#8EEFBB" />
<rect x="11" y="7" width="1" height="1" fill="#11502E" />
<rect x="12" y="7" width="1" height="1" fill="#5B7867" />
<rect x="13" y="7" width="1" height="1" fill="#3FB36B" />
<rect x="14" y="7" width="1" height="1" fill="#75DE9E" />
<rect x="15" y="7" width="1" height="1" fill="#B3EDC8" />
<rect x="0" y="8" width="1" height="1" fill="#638E70" />
<rect x="1" y="8" width="1" height="1" fill="#D8F8E2" />
<rect x="2" y="8" width="1" height="1" fill="#2FA251" />
<rect x="3" y="8" width="1" height="1" fill="#426D4C" />
<rect x="4" y="8" width="1" height="1" fill="#47CB53" />
<rect x="5" y="8" width="1" height="1" fill="#6CBB71" />
<rect x="6" y="8" width="1" height="1" fill="#3F5841" />
<rect x="7" y="8" width="1" height="1" fill="#C6D8C6" />
<rect x="8" y="8" width="1" height="1" fill="#E8F8E8" />
<rect x="9" y="8" width="1" height="1" fill="#6AE167" />
<rect x="10" y="8" width="1" height="1" fill="#A5BFA4" />
<rect x="11" y="8" width="1" height="1" fill="#2C5429" />
<rect x="12" y="8" width="1" height="1" fill="#95F28E" />
<rect x="13" y="8" width="1" height="1" fill="#30C523" />
<rect x="14" y="8" width="1" height="1" fill="#4E9047" />
<rect x="15" y="8" width="1" height="1" fill="#34A425" />
<rect x="0" y="9" width="1" height="1" fill="#55AB4B" />
<rect x="1" y="9" width="1" height="1" fill="#337626" />
<rect x="2" y="9" width="1" height="1" fill="#CEF0C8" />
<rect x="3" y="9" width="1" height="1" fill="#AAE09B" />
<rect x="4" y="9" width="1" height="1" fill="#6DC427" />
<rect x="5" y="9" width="1" height="1" fill="#7AB64C" />
<rect x="6" y="9" width="1" height="1" fill="#91B773" />
<rect x="7" y="9" width="1" height="1" fill="#629A2E" />
<rect x="8" y="9" width="1" height="1" fill="#6E904E" />
<rect x="9" y="9" width="1" height="1" fill="#CFF2AF" />
<rect x="10" y="9" width="1" height="1" fill="#9BD75B" />
<rect x="11" y="9" width="1" height="1" fill="#AFE974" />
<rect x="12" y="9" width="1" height="1" fill="#C6C8C4" />
<rect x="13" y="9" width="1" height="1" fill="#91ED20" />
<rect x="14" y="9" width="1" height="1" fill="#CBF38A" />
<rect x="15" y="9" width="1" height="1" fill="#8FC134" />
<rect x="0" y="10" width="1" height="1" fill="#C7F44C" />
<rect x="1" y="10" width="1" height="1" fill="#B8BBA6" />
<rect x="2" y="10" width="1" height="1" fill="#F5F8D8" />
<rect x="3" y="10" width="1" height="1" fill="#CACA3D" />
<rect x="4" y="10" width="1" height="1" fill="#989884" />
<rect x="5" y="10" width="1" height="1" fill="#D8D8C2" />
<rect x="6" y="10" width="1" height="1" fill="#F8F8F1" />
<rect x="7" y="10" width="1" height="1" fill="#E8E8E6" />
<rect x="8" y="10" width="1" height="1" fill="#A8A8A7" />
<rect x="9" y="10" width="1" height="1" fill="#6E6D33" />
<rect x="10" y="10" width="1" height="1" fill="#EEEB79" />
<rect x="11" y="10" width="1" height="1" fill="#F2F0B0" />
<rect x="12" y="10" width="1" height="1" fill="#A7A00B" />
<rect x="13" y="10" width="1" height="1" fill="#F6ED33" />
<rect x="14" y="10" width="1" height="1" fill="#F5ED62" />
<rect x="15" y="10" width="1" height="1" fill="#B0AC4A" />
<rect x="0" y="11" width="1" height="1" fill="#D6D169" />
<rect x="1" y="11" width="1" height="1" fill="#F6EF91" />
<rect x="2" y="11" width="1" height="1" fill="#5D5A3A" />
<rect x="3" y="11" width="1" height="1" fill="#F4F1C8" />
<rect x="4" y="11" width="1" height="1" fill="#938B3C" />
<rect x="5" y="11" width="1" height="1" fill="#D3CD8F" />
<rect x="6" y="11" width="1" height="1" fill="#EBD10E" />
<rect x="7" y="11" width="1" height="1" fill="#958F63" />
<rect x="8" y="11" width="1" height="1" fill="#D0B30F" />
<rect x="9" y="11" width="1" height="1" fill="#CCB232" />
<rect x="10" y="11" width="1" height="1" fill="#AD982D" />
<rect x="11" y="11" width="1" height="1" fill="#D6CFAE" />
<rect x="12" y="11" width="1" height="1" fill="#8F7610" />
<rect x="13" y="11" width="1" height="1" fill="#F2CE34" />
<rect x="14" y="11" width="1" height="1" fill="#F3D24F" />
<rect x="15" y="11" width="1" height="1" fill="#BAAB6E" />
<rect x="0" y="12" width="1" height="1" fill="#D0B14E" />
<rect x="1" y="12" width="1" height="1" fill="#ECB30B" />
<rect x="2" y="12" width="1" height="1" fill="#4C3E16" />
<rect x="3" y="12" width="1" height="1" fill="#F4D26F" />
<rect x="4" y="12" width="1" height="1" fill="#ECB42D" />
<rect x="5" y="12" width="1" height="1" fill="#69521A" />
<rect x="6" y="12" width="1" height="1" fill="#88784E" />
<rect x="7" y="12" width="1" height="1" fill="#D6B670" />
<rect x="8" y="12" width="1" height="1" fill="#B7AB90" />
<rect x="9" y="12" width="1" height="1" fill="#CD8D10" />
<rect x="10" y="12" width="1" height="1" fill="#F0CF90" />
<rect x="11" y="12" width="1" height="1" fill="#CD9432" />
<rect x="12" y="12" width="1" height="1" fill="#8F6C31" />
<rect x="13" y="12" width="1" height="1" fill="#D1B88D" />
<rect x="14" y="12" width="1" height="1" fill="#EC930F" />
<rect x="15" y="12" width="1" height="1" fill="#F3B04F" />
<rect x="0" y="13" width="1" height="1" fill="#B48844" />
<rect x="1" y="13" width="1" height="1" fill="#B19469" />
<rect x="2" y="13" width="1" height="1" fill="#BB7310" />
<rect x="3" y="13" width="1" height="1" fill="#844F16" />
<rect x="4" y="13" width="1" height="1" fill="#CF914E" />
<rect x="5" y="13" width="1" height="1" fill="#F59639" />
<rect x="6" y="13" width="1" height="1" fill="#F3D2B0" />
<rect x="7" y="13" width="1" height="1" fill="#B16B2C" />
<rect x="8" y="13" width="1" height="1" fill="#F0AF73" />
<rect x="9" y="13" width="1" height="1" fill="#EE7713" />
<rect x="10" y="13" width="1" height="1" fill="#AE7348" />
<rect x="11" y="13" width="1" height="1" fill="#B95415" />
<rect x="12" y="13" width="1" height="1" fill="#CE916A" />
<rect x="13" y="13" width="1" height="1" fill="#91684F" />
<rect x="14" y="13" width="1" height="1" fill="#F18A51" />
<rect x="15" y="13" width="1" height="1" fill="#935434" />
<rect x="0" y="14" width="1" height="1" fill="#CE7449" />
<rect x="1" y="14" width="1" height="1" fill="#A0887D" />
<rect x="2" y="14" width="1" height="1" fill="#F5AE92" />
<rect x="3" y="14" width="1" height="1" fill="#90756A" />
<rect x="4" y="14" width="1" height="1" fill="#AE5332" />
<rect x="5" y="14" width="1" height="1" fill="#EB7449" />
<rect x="6" y="14" width="1" height="1" fill="#B0968C" />
<rect x="7" y="14" width="1" height="1" fill="#E2592B" />
<rect x="8" y="14" width="1" height="1" fill="#ED8F70" />
<rect x="9" y="14" width="1" height="1" fill="#735348" />
<rect x="10" y="14" width="1" height="1" fill="#F8E8E3" />
<rect x="11" y="14" width="1" height="1" fill="#D0B5AD" />
<rect x="12" y="14" width="1" height="1" fill="#5F4641" />
<rect x="13" y="14" width="1" height="1" fill="#F6D3CF" />
<rect x="14" y="14" width="1" height="1" fill="#7C6866" />
<rect x="15" y="14" width="1" height="1" fill="#C1A8A6" />
<rect x="0" y="15" width="1" height="1" fill="#783430" />
<rect x="1" y="15" width="1" height="1" fill="#8B514E" />
<rect x="2" y="15" width="1" height="1" fill="#F2514D" />
<rect x="3" y="15" width="1" height="1" fill="#D14F4A" />
<rect x="4" y="15" width="1" height="1" fill="#F5918E" />
<rect x="5" y="15" width="1" height="1" fill="#F6B1AF" />
<rect x="6" y="15" width="1" height="1" fill="#EB2C2C" />
<rect x="7" y="15" width="1" height="1" fill="#B1302E" />
<rect x="8" y="15" width="1" height="1" fill="#B15151" />
<rect x="9" y="15" width="1" height="1" fill="#E1C8C8" />
<rect x="10" y="15" width="1" height="1" fill="#787878" />
<rect x="11" y="15" width="1" height="1" fill="#686868" />
<rect x="12" y="15" width="1" height="1" fill="#383838" />
<rect x="13" y="15" width="1" height="1" fill="#282828" />
<rect x="14" y="15" width="1" height="1" fill="#070707" />
<rect x="15" y="15" width="1" height="1" fill="#FFFFFF" opacity="0.000000" />
</svg>